<svg width="60" height="60" viewBox="0 0 60 60" fill="none" xmlns="http://www.w3.org/2000/svg">
<path d="M60 0H0V60H60V0Z" fill="black"/>
<path d="M41.0383 16.05L45.0306 19.0603L51.0705 11.05H41.0383V16.05ZM18.1383 16.05H13.1383V21.05H18.1383V16.05ZM18.1383 14.2V9.19999H13.1383V14.2H18.1383ZM43.4383 14.2H48.4383V9.19999H43.4383V14.2ZM43.4383 49V54H48.4383V49H43.4383ZM17.5883 49H12.5883V54H17.5883V49ZM17.5883 47.15L13.596 44.1397L12.5883 45.4762V47.15H17.5883ZM41.5883 47.15V52.15H46.5883V47.15H41.5883ZM41.5883 18.4H46.5883V3.47598L37.5975 15.3878L41.5883 18.4ZM19.8883 47.15L15.8975 44.1378L9.84998 52.15H19.8883V47.15ZM41.0383 11.05H18.1383V21.05H41.0383V11.05ZM23.1383 16.05V14.2H13.1383V16.05H23.1383ZM18.1383 19.2H43.4383V9.19999H18.1383V19.2ZM38.4383 14.2V49H48.4383V14.2H38.4383ZM43.4383 44H17.5883V54H43.4383V44ZM22.5883 49V47.15H12.5883V49H22.5883ZM21.5806 50.1603L45.0306 19.0603L37.046 13.0397L13.596 44.1397L21.5806 50.1603ZM46.5883 47.15V18.4H36.5883V47.15H46.5883ZM37.5975 15.3878L15.8975 44.1378L23.8791 50.1622L45.5791 21.4122L37.5975 15.3878ZM19.8883 52.15H41.5883V42.15H19.8883V52.15Z" fill="white"/>
<path d="M41.0383 16.05H18.1383V14.2H43.4383V49H17.5883V47.15L41.0383 16.05ZM41.5883 47.15V18.4L19.8883 47.15H41.5883Z" fill="black"/>
</svg>
