<svg width="6000" height="6000" viewBox="0 0 6000 6000" fill="none" xmlns="http://www.w3.org/2000/svg">
<path d="M2677.81 4927.63C2616.62 4912.66 2610.11 4852.77 2650.47 4677.34C2665.76 4611.59 2694.08 4510.69 2699.29 4505.16C2700.59 4503.53 2711.66 4512.64 2724.03 4524.68C2787.82 4589.13 2838.27 4616.47 2917.04 4628.51C2937.54 4631.44 2956.09 4634.37 2958.05 4635.02C2960.65 4635.67 2962.28 4650.32 2963.26 4677.99C2964.56 4728.11 2968.14 4737.23 2987.67 4743.74C2998.73 4747.64 3003.62 4747.97 3014.36 4744.39C3034.21 4738.53 3038.12 4728.44 3040.4 4677.34L3042.35 4635.02L3060.25 4632.75C3154.31 4620.05 3202.49 4597.59 3267.26 4534.77C3292.32 4510.69 3301.11 4504.18 3303.71 4507.11C3308.27 4512.64 3333.33 4600.2 3348.3 4660.41C3369.46 4747.97 3373.36 4772.38 3374.99 4825.76C3376.62 4874.91 3376.62 4876.53 3368.48 4892.48C3356.76 4915.92 3347.98 4922.43 3321.94 4927.96C3288.74 4935.12 2707.1 4934.79 2677.81 4927.63Z" fill="#0D47A1"/>
<path d="M2957.72 4585.88C2954.14 4585.22 2943.08 4582.95 2933.31 4580.99C2910.53 4576.76 2876.68 4566.02 2860.08 4557.88C2814.18 4535.1 2767.31 4492.79 2736.39 4446.24C2716.86 4416.95 2716.86 4416.95 2717.19 4394.17C2717.84 4365.2 2731.84 4309.87 2746.48 4279.6C2766.99 4236.96 2802.47 4207.01 2844.78 4197.25C2853.89 4194.97 2861.7 4191.72 2861.7 4189.76C2861.7 4187.81 2868.21 4172.84 2876.03 4156.56C2893.93 4120.11 2919.64 4094.07 2946.98 4084.31C2971.39 4075.84 3035.19 4075.84 3059.6 4084.63C3090.19 4095.05 3123.07 4133.45 3139.67 4178.37C3145.2 4192.04 3146.83 4193.67 3160.82 4197.25C3202.81 4207.66 3238.94 4236.96 3258.47 4276.67C3269.86 4300.1 3286.14 4359.34 3289.39 4390.91C3291.67 4410.11 3291.34 4410.77 3275.07 4437.13C3226.25 4516.22 3150.73 4567.97 3062.2 4582.95C3036.16 4587.5 2974.32 4589.13 2957.72 4585.88ZM3048.86 4196.6C3041.37 4162.1 3026.4 4145.17 3003.29 4145.17C2984.74 4145.17 2968.46 4158.52 2961.3 4180C2951.54 4208.32 2949.91 4207.01 3003.62 4207.01H3051.14L3048.86 4196.6Z" fill="url(#paint0_linear)"/>
<path d="M2724.14 4196.41C2720.88 4192.25 2721.54 3800.57 2724.79 3798.08C2726.42 3796.82 2751.15 3810.98 2780.12 3829.7L2832.53 3863.43V3987.46V4111.51L2808.44 4126.07C2784.35 4140.22 2759.62 4159.78 2748.55 4173.52C2734.23 4191.42 2726.09 4199.32 2724.14 4196.41Z" fill="url(#paint1_linear)"/>
<path d="M3258.91 4184.49C3243.29 4164.59 3215.29 4141.02 3193.81 4130.05C3184.05 4124.76 3173.96 4118.67 3172.01 4116.64C3168.75 4113.79 3167.77 4083.71 3167.77 3991.47V3869.97L3220.18 3837.06C3250.45 3818.35 3273.88 3805.76 3275.51 3807.79C3279.74 3813.07 3277.79 4196.28 3273.56 4197.5C3271.93 4198.31 3265.09 4192.22 3258.91 4184.49Z" fill="url(#paint2_linear)"/>
<path fill-rule="evenodd" clip-rule="evenodd" d="M4387 2227C4387 2865.97 3981.34 3422.35 3170.03 3896.15L3170 3891L3001.87 3890.98C3000.62 2940.85 3000 2265.52 3000 1865C3000 521 4387 1204.52 4387 2227Z" fill="url(#paint3_linear)"/>
<path fill-rule="evenodd" clip-rule="evenodd" d="M1613 2226.81C1613 2865.85 2018.66 3422.29 2829.97 3896.14L2830 3891L2998.13 3890.98C2999.38 2940.74 3000 2265.34 3000 1864.77C3000 520.629 1613 1204.22 1613 2226.81Z" fill="url(#paint4_linear)"/>
<path fill-rule="evenodd" clip-rule="evenodd" d="M2984 1066C3172.62 1066 3594 1104.52 3594 2127C3594 2768.76 3413.77 3356.77 3053.31 3891L2918.33 3891C2576.78 3356.76 2406 2768.76 2406 2127C2406 1114.74 2787.64 1066.87 2978.28 1066.01L2984 1066Z" fill="url(#paint5_linear)"/>
<path fill-rule="evenodd" clip-rule="evenodd" d="M3016 1066C2827.38 1066 2406 1104.52 2406 2127C2406 2768.76 2586.23 3356.77 2946.69 3891L3081.67 3891C3423.22 3356.76 3594 2768.76 3594 2127C3594 1114.74 3212.36 1066.87 3021.72 1066.01L3016 1066Z" fill="url(#paint6_linear)"/>
<defs>
<linearGradient id="paint0_linear" x1="3004" y1="2233.5" x2="3003.79" y2="4332.94" gradientUnits="userSpaceOnUse">
<stop stop-color="#FEBC30"/>
<stop offset="1" stop-color="#0D47A1"/>
</linearGradient>
<linearGradient id="paint1_linear" x1="2094" y1="2528" x2="3648.09" y2="4381.98" gradientUnits="userSpaceOnUse">
<stop stop-color="#0093FF"/>
<stop offset="1" stop-color="#0D47A1"/>
</linearGradient>
<linearGradient id="paint2_linear" x1="3957" y1="2472" x2="2322.8" y2="4307.59" gradientUnits="userSpaceOnUse">
<stop stop-color="#D90456"/>
<stop offset="1" stop-color="#0D47A1"/>
</linearGradient>
<linearGradient id="paint3_linear" x1="3970.5" y1="2507" x2="2439.07" y2="4489.75" gradientUnits="userSpaceOnUse">
<stop stop-color="#D90456"/>
<stop offset="1" stop-color="#0D47A1"/>
</linearGradient>
<linearGradient id="paint4_linear" x1="2043.5" y1="2507" x2="3551.06" y2="4502.1" gradientUnits="userSpaceOnUse">
<stop stop-color="#0093FF"/>
<stop offset="1" stop-color="#0D47A1"/>
</linearGradient>
<linearGradient id="paint5_linear" x1="3000" y1="2712" x2="3000" y2="4926.5" gradientUnits="userSpaceOnUse">
<stop stop-color="#FEBC30"/>
<stop offset="1" stop-color="#0D47A1"/>
</linearGradient>
<linearGradient id="paint6_linear" x1="3000" y1="2712" x2="3000" y2="4926.5" gradientUnits="userSpaceOnUse">
<stop stop-color="#FEBC30"/>
<stop offset="1" stop-color="#0D47A1"/>
</linearGradient>
</defs>
</svg>
